<mxfile host="app.diagrams.net" modified="2024-05-24T13:56:49.299Z" agent="Mozilla/5.0 (Windows NT 10.0; Win64; x64) AppleWebKit/537.36 (KHTML, like Gecko) Chrome/121.0.0.0 Safari/537.36" etag="cBISRBLOF70aX7ad96db" version="24.4.7" type="device">
  <diagram name="Página-1" id="TLPd1DgTYXxIqjMHZHWx">
    <mxGraphModel dx="1434" dy="772" grid="1" gridSize="8" guides="1" tooltips="1" connect="1" arrows="1" fold="1" page="1" pageScale="1" pageWidth="3300" pageHeight="4681" math="0" shadow="0">
      <root>
        <mxCell id="0" />
        <mxCell id="1" parent="0" />
        <mxCell id="2E5seLhveW0mqRELlNBj-6" value="" style="edgeStyle=orthogonalEdgeStyle;rounded=0;orthogonalLoop=1;jettySize=auto;html=1;" parent="1" source="2E5seLhveW0mqRELlNBj-1" target="2E5seLhveW0mqRELlNBj-3" edge="1">
          <mxGeometry relative="1" as="geometry" />
        </mxCell>
        <mxCell id="2E5seLhveW0mqRELlNBj-1" value="Início" style="ellipse;whiteSpace=wrap;html=1;" parent="1" vertex="1">
          <mxGeometry x="360" y="80" width="120" height="80" as="geometry" />
        </mxCell>
        <mxCell id="2E5seLhveW0mqRELlNBj-34" style="edgeStyle=orthogonalEdgeStyle;rounded=0;orthogonalLoop=1;jettySize=auto;html=1;exitX=0;exitY=0.5;exitDx=0;exitDy=0;entryX=0.5;entryY=0;entryDx=0;entryDy=0;" parent="1" source="2E5seLhveW0mqRELlNBj-2" target="2E5seLhveW0mqRELlNBj-32" edge="1">
          <mxGeometry relative="1" as="geometry" />
        </mxCell>
        <mxCell id="2E5seLhveW0mqRELlNBj-2" value="Cadastro de Pedido" style="rounded=0;whiteSpace=wrap;html=1;" parent="1" vertex="1">
          <mxGeometry x="360" y="280" width="120" height="60" as="geometry" />
        </mxCell>
        <mxCell id="2E5seLhveW0mqRELlNBj-7" value="" style="edgeStyle=orthogonalEdgeStyle;rounded=0;orthogonalLoop=1;jettySize=auto;html=1;" parent="1" source="2E5seLhveW0mqRELlNBj-3" target="2E5seLhveW0mqRELlNBj-2" edge="1">
          <mxGeometry relative="1" as="geometry" />
        </mxCell>
        <mxCell id="2E5seLhveW0mqRELlNBj-3" value="Lista de Pedidos" style="rounded=0;whiteSpace=wrap;html=1;" parent="1" vertex="1">
          <mxGeometry x="360" y="190" width="120" height="60" as="geometry" />
        </mxCell>
        <mxCell id="2E5seLhveW0mqRELlNBj-37" style="edgeStyle=orthogonalEdgeStyle;rounded=0;orthogonalLoop=1;jettySize=auto;html=1;exitX=0.5;exitY=1;exitDx=0;exitDy=0;entryX=0.5;entryY=0;entryDx=0;entryDy=0;" parent="1" source="2E5seLhveW0mqRELlNBj-4" target="2E5seLhveW0mqRELlNBj-12" edge="1">
          <mxGeometry relative="1" as="geometry" />
        </mxCell>
        <mxCell id="2E5seLhveW0mqRELlNBj-4" value="Verificar estoque" style="rounded=0;whiteSpace=wrap;html=1;" parent="1" vertex="1">
          <mxGeometry x="220" y="450" width="120" height="60" as="geometry" />
        </mxCell>
        <mxCell id="2E5seLhveW0mqRELlNBj-45" style="edgeStyle=orthogonalEdgeStyle;rounded=0;orthogonalLoop=1;jettySize=auto;html=1;exitX=1;exitY=0.5;exitDx=0;exitDy=0;entryX=0;entryY=0.5;entryDx=0;entryDy=0;" parent="1" source="2E5seLhveW0mqRELlNBj-12" target="2E5seLhveW0mqRELlNBj-14" edge="1">
          <mxGeometry relative="1" as="geometry" />
        </mxCell>
        <mxCell id="2E5seLhveW0mqRELlNBj-49" style="edgeStyle=orthogonalEdgeStyle;rounded=0;orthogonalLoop=1;jettySize=auto;html=1;exitX=0;exitY=0.5;exitDx=0;exitDy=0;entryX=0;entryY=0.5;entryDx=0;entryDy=0;" parent="1" source="2E5seLhveW0mqRELlNBj-12" target="2E5seLhveW0mqRELlNBj-1" edge="1">
          <mxGeometry relative="1" as="geometry">
            <Array as="points">
              <mxPoint x="180" y="608" />
              <mxPoint x="180" y="120" />
            </Array>
          </mxGeometry>
        </mxCell>
        <mxCell id="2E5seLhveW0mqRELlNBj-12" value="Tem no Estoque?" style="rhombus;whiteSpace=wrap;html=1;" parent="1" vertex="1">
          <mxGeometry x="240" y="568" width="80" height="80" as="geometry" />
        </mxCell>
        <mxCell id="2E5seLhveW0mqRELlNBj-42" style="edgeStyle=orthogonalEdgeStyle;rounded=0;orthogonalLoop=1;jettySize=auto;html=1;exitX=1;exitY=0.5;exitDx=0;exitDy=0;" parent="1" source="2E5seLhveW0mqRELlNBj-14" target="2E5seLhveW0mqRELlNBj-19" edge="1">
          <mxGeometry relative="1" as="geometry" />
        </mxCell>
        <mxCell id="2E5seLhveW0mqRELlNBj-14" value="Verificar Preço" style="rounded=0;whiteSpace=wrap;html=1;" parent="1" vertex="1">
          <mxGeometry x="390" y="530" width="120" height="60" as="geometry" />
        </mxCell>
        <mxCell id="2E5seLhveW0mqRELlNBj-29" style="edgeStyle=orthogonalEdgeStyle;rounded=0;orthogonalLoop=1;jettySize=auto;html=1;exitX=0.5;exitY=1;exitDx=0;exitDy=0;entryX=0.5;entryY=0;entryDx=0;entryDy=0;" parent="1" source="2E5seLhveW0mqRELlNBj-19" target="2E5seLhveW0mqRELlNBj-27" edge="1">
          <mxGeometry relative="1" as="geometry" />
        </mxCell>
        <mxCell id="sw0cVe_-EWTT1FvwA-Mw-1" style="edgeStyle=orthogonalEdgeStyle;rounded=0;orthogonalLoop=1;jettySize=auto;html=1;exitX=0.5;exitY=0;exitDx=0;exitDy=0;entryX=0.5;entryY=1;entryDx=0;entryDy=0;" edge="1" parent="1" source="2E5seLhveW0mqRELlNBj-19" target="2E5seLhveW0mqRELlNBj-38">
          <mxGeometry relative="1" as="geometry" />
        </mxCell>
        <mxCell id="2E5seLhveW0mqRELlNBj-19" value="Preço correto?" style="rhombus;whiteSpace=wrap;html=1;" parent="1" vertex="1">
          <mxGeometry x="560" y="520" width="80" height="80" as="geometry" />
        </mxCell>
        <mxCell id="2E5seLhveW0mqRELlNBj-27" value="Relatório do Pedido" style="rounded=0;whiteSpace=wrap;html=1;" parent="1" vertex="1">
          <mxGeometry x="680" y="578" width="120" height="60" as="geometry" />
        </mxCell>
        <mxCell id="2E5seLhveW0mqRELlNBj-30" value="Sim" style="text;html=1;align=center;verticalAlign=middle;resizable=0;points=[];autosize=1;strokeColor=none;fillColor=none;" parent="1" vertex="1">
          <mxGeometry x="610" y="618" width="40" height="30" as="geometry" />
        </mxCell>
        <mxCell id="2E5seLhveW0mqRELlNBj-35" style="edgeStyle=orthogonalEdgeStyle;rounded=0;orthogonalLoop=1;jettySize=auto;html=1;exitX=0.5;exitY=1;exitDx=0;exitDy=0;entryX=0.5;entryY=0;entryDx=0;entryDy=0;" parent="1" source="2E5seLhveW0mqRELlNBj-32" target="2E5seLhveW0mqRELlNBj-4" edge="1">
          <mxGeometry relative="1" as="geometry" />
        </mxCell>
        <mxCell id="2E5seLhveW0mqRELlNBj-39" style="edgeStyle=orthogonalEdgeStyle;rounded=0;orthogonalLoop=1;jettySize=auto;html=1;exitX=1;exitY=0.5;exitDx=0;exitDy=0;" parent="1" source="2E5seLhveW0mqRELlNBj-32" edge="1">
          <mxGeometry relative="1" as="geometry">
            <mxPoint x="610" y="370" as="targetPoint" />
          </mxGeometry>
        </mxCell>
        <mxCell id="2E5seLhveW0mqRELlNBj-32" value="Dados Válidos?" style="rhombus;whiteSpace=wrap;html=1;" parent="1" vertex="1">
          <mxGeometry x="240" y="330" width="80" height="80" as="geometry" />
        </mxCell>
        <mxCell id="2E5seLhveW0mqRELlNBj-36" value="Sim" style="text;html=1;align=center;verticalAlign=middle;resizable=0;points=[];autosize=1;strokeColor=none;fillColor=none;" parent="1" vertex="1">
          <mxGeometry x="280" y="408" width="40" height="30" as="geometry" />
        </mxCell>
        <mxCell id="2E5seLhveW0mqRELlNBj-43" style="edgeStyle=orthogonalEdgeStyle;rounded=0;orthogonalLoop=1;jettySize=auto;html=1;exitX=0.5;exitY=0;exitDx=0;exitDy=0;entryX=1;entryY=0.5;entryDx=0;entryDy=0;" parent="1" source="2E5seLhveW0mqRELlNBj-38" target="2E5seLhveW0mqRELlNBj-3" edge="1">
          <mxGeometry relative="1" as="geometry" />
        </mxCell>
        <mxCell id="2E5seLhveW0mqRELlNBj-38" value="Deletar/Desativar" style="rounded=0;whiteSpace=wrap;html=1;" parent="1" vertex="1">
          <mxGeometry x="610" y="340" width="120" height="60" as="geometry" />
        </mxCell>
        <mxCell id="2E5seLhveW0mqRELlNBj-40" value="Não" style="text;html=1;align=center;verticalAlign=middle;resizable=0;points=[];autosize=1;strokeColor=none;fillColor=none;" parent="1" vertex="1">
          <mxGeometry x="410" y="350" width="50" height="30" as="geometry" />
        </mxCell>
        <mxCell id="2E5seLhveW0mqRELlNBj-41" value="Sim" style="text;html=1;align=center;verticalAlign=middle;resizable=0;points=[];autosize=1;strokeColor=none;fillColor=none;" parent="1" vertex="1">
          <mxGeometry x="320" y="588" width="40" height="30" as="geometry" />
        </mxCell>
        <mxCell id="2E5seLhveW0mqRELlNBj-18" value="Não" style="text;html=1;align=center;verticalAlign=middle;resizable=0;points=[];autosize=1;strokeColor=none;fillColor=none;" parent="1" vertex="1">
          <mxGeometry x="180" y="585" width="50" height="30" as="geometry" />
        </mxCell>
        <mxCell id="sw0cVe_-EWTT1FvwA-Mw-2" value="não" style="text;html=1;align=center;verticalAlign=middle;resizable=0;points=[];autosize=1;strokeColor=none;fillColor=none;" vertex="1" parent="1">
          <mxGeometry x="590" y="488" width="40" height="30" as="geometry" />
        </mxCell>
        <mxCell id="sw0cVe_-EWTT1FvwA-Mw-9" style="edgeStyle=orthogonalEdgeStyle;rounded=0;orthogonalLoop=1;jettySize=auto;html=1;exitX=0.5;exitY=1;exitDx=0;exitDy=0;entryX=0.5;entryY=0;entryDx=0;entryDy=0;" edge="1" parent="1" source="sw0cVe_-EWTT1FvwA-Mw-3" target="sw0cVe_-EWTT1FvwA-Mw-4">
          <mxGeometry relative="1" as="geometry" />
        </mxCell>
        <mxCell id="sw0cVe_-EWTT1FvwA-Mw-3" value="ínicio" style="ellipse;whiteSpace=wrap;html=1;" vertex="1" parent="1">
          <mxGeometry x="550" y="1064" width="120" height="80" as="geometry" />
        </mxCell>
        <mxCell id="sw0cVe_-EWTT1FvwA-Mw-31" style="edgeStyle=orthogonalEdgeStyle;rounded=0;orthogonalLoop=1;jettySize=auto;html=1;exitX=0.5;exitY=1;exitDx=0;exitDy=0;entryX=0.5;entryY=0;entryDx=0;entryDy=0;" edge="1" parent="1" source="sw0cVe_-EWTT1FvwA-Mw-4" target="sw0cVe_-EWTT1FvwA-Mw-5">
          <mxGeometry relative="1" as="geometry" />
        </mxCell>
        <mxCell id="sw0cVe_-EWTT1FvwA-Mw-4" value="Entrada de Pedido" style="rounded=0;whiteSpace=wrap;html=1;" vertex="1" parent="1">
          <mxGeometry x="550" y="1208" width="120" height="56" as="geometry" />
        </mxCell>
        <mxCell id="sw0cVe_-EWTT1FvwA-Mw-21" style="edgeStyle=orthogonalEdgeStyle;rounded=0;orthogonalLoop=1;jettySize=auto;html=1;entryX=0.5;entryY=0;entryDx=0;entryDy=0;" edge="1" parent="1" source="sw0cVe_-EWTT1FvwA-Mw-5" target="sw0cVe_-EWTT1FvwA-Mw-18">
          <mxGeometry relative="1" as="geometry" />
        </mxCell>
        <mxCell id="sw0cVe_-EWTT1FvwA-Mw-5" value="Cadastro de pedidos do cliente" style="rounded=0;whiteSpace=wrap;html=1;" vertex="1" parent="1">
          <mxGeometry x="550" y="1296" width="120" height="60" as="geometry" />
        </mxCell>
        <mxCell id="sw0cVe_-EWTT1FvwA-Mw-6" value="Saída de pedido repassado para a transportadora" style="rounded=0;whiteSpace=wrap;html=1;" vertex="1" parent="1">
          <mxGeometry x="760" y="1632" width="120" height="60" as="geometry" />
        </mxCell>
        <mxCell id="sw0cVe_-EWTT1FvwA-Mw-25" style="edgeStyle=orthogonalEdgeStyle;rounded=0;orthogonalLoop=1;jettySize=auto;html=1;exitX=0.5;exitY=1;exitDx=0;exitDy=0;entryX=0.5;entryY=0;entryDx=0;entryDy=0;" edge="1" parent="1" source="sw0cVe_-EWTT1FvwA-Mw-10" target="sw0cVe_-EWTT1FvwA-Mw-11">
          <mxGeometry relative="1" as="geometry" />
        </mxCell>
        <mxCell id="sw0cVe_-EWTT1FvwA-Mw-10" value="Verificar Estoque" style="rounded=0;whiteSpace=wrap;html=1;" vertex="1" parent="1">
          <mxGeometry x="540" y="1448" width="120" height="60" as="geometry" />
        </mxCell>
        <mxCell id="sw0cVe_-EWTT1FvwA-Mw-27" style="edgeStyle=orthogonalEdgeStyle;rounded=0;orthogonalLoop=1;jettySize=auto;html=1;exitX=0.5;exitY=1;exitDx=0;exitDy=0;" edge="1" parent="1" source="sw0cVe_-EWTT1FvwA-Mw-11" target="sw0cVe_-EWTT1FvwA-Mw-6">
          <mxGeometry relative="1" as="geometry" />
        </mxCell>
        <mxCell id="sw0cVe_-EWTT1FvwA-Mw-11" value="Tem no Estoque?" style="rhombus;whiteSpace=wrap;html=1;" vertex="1" parent="1">
          <mxGeometry x="560" y="1560" width="80" height="80" as="geometry" />
        </mxCell>
        <mxCell id="sw0cVe_-EWTT1FvwA-Mw-17" value="Sim" style="text;html=1;align=center;verticalAlign=middle;resizable=0;points=[];autosize=1;strokeColor=none;fillColor=none;" vertex="1" parent="1">
          <mxGeometry x="430" y="1456" width="40" height="32" as="geometry" />
        </mxCell>
        <mxCell id="sw0cVe_-EWTT1FvwA-Mw-20" style="edgeStyle=orthogonalEdgeStyle;rounded=0;orthogonalLoop=1;jettySize=auto;html=1;exitX=0.5;exitY=1;exitDx=0;exitDy=0;entryX=0;entryY=0.5;entryDx=0;entryDy=0;" edge="1" parent="1" source="sw0cVe_-EWTT1FvwA-Mw-18" target="sw0cVe_-EWTT1FvwA-Mw-10">
          <mxGeometry relative="1" as="geometry" />
        </mxCell>
        <mxCell id="sw0cVe_-EWTT1FvwA-Mw-23" style="edgeStyle=orthogonalEdgeStyle;rounded=0;orthogonalLoop=1;jettySize=auto;html=1;exitX=1;exitY=0.5;exitDx=0;exitDy=0;entryX=0;entryY=0.5;entryDx=0;entryDy=0;" edge="1" parent="1" source="sw0cVe_-EWTT1FvwA-Mw-18" target="sw0cVe_-EWTT1FvwA-Mw-22">
          <mxGeometry relative="1" as="geometry" />
        </mxCell>
        <mxCell id="sw0cVe_-EWTT1FvwA-Mw-18" value="Dados Validos?" style="rhombus;whiteSpace=wrap;html=1;" vertex="1" parent="1">
          <mxGeometry x="390" y="1368" width="80" height="80" as="geometry" />
        </mxCell>
        <mxCell id="sw0cVe_-EWTT1FvwA-Mw-22" value="Deletar/Desativar" style="rounded=0;whiteSpace=wrap;html=1;" vertex="1" parent="1">
          <mxGeometry x="800" y="1344" width="120" height="60" as="geometry" />
        </mxCell>
        <mxCell id="sw0cVe_-EWTT1FvwA-Mw-24" value="Não" style="text;html=1;align=center;verticalAlign=middle;resizable=0;points=[];autosize=1;strokeColor=none;fillColor=none;" vertex="1" parent="1">
          <mxGeometry x="530" y="1381" width="40" height="32" as="geometry" />
        </mxCell>
        <mxCell id="sw0cVe_-EWTT1FvwA-Mw-26" value="Sim" style="text;html=1;align=center;verticalAlign=middle;resizable=0;points=[];autosize=1;strokeColor=none;fillColor=none;" vertex="1" parent="1">
          <mxGeometry x="624" y="1664" width="40" height="32" as="geometry" />
        </mxCell>
        <mxCell id="sw0cVe_-EWTT1FvwA-Mw-29" style="edgeStyle=orthogonalEdgeStyle;rounded=0;orthogonalLoop=1;jettySize=auto;html=1;exitX=1;exitY=0.5;exitDx=0;exitDy=0;entryX=0.567;entryY=0.967;entryDx=0;entryDy=0;entryPerimeter=0;" edge="1" parent="1" source="sw0cVe_-EWTT1FvwA-Mw-11" target="sw0cVe_-EWTT1FvwA-Mw-22">
          <mxGeometry relative="1" as="geometry" />
        </mxCell>
        <mxCell id="sw0cVe_-EWTT1FvwA-Mw-30" value="Não" style="text;html=1;align=center;verticalAlign=middle;resizable=0;points=[];autosize=1;strokeColor=none;fillColor=none;" vertex="1" parent="1">
          <mxGeometry x="656" y="1573" width="40" height="32" as="geometry" />
        </mxCell>
      </root>
    </mxGraphModel>
  </diagram>
</mxfile>
